<?xml version="1.0" encoding="UTF-8"?>
<svg version="1.1" xmlns="http://www.w3.org/2000/svg" width="500" height="500">
<path d="M0 0 C0.8098938 -0.00287018 1.6197876 -0.00574036 2.45422363 -0.00869751 C4.16561584 -0.01073792 5.87703138 -0.00520959 7.58837891 0.00732422 C10.2091889 0.02337893 12.82845677 0.00747556 15.44921875 -0.01171875 C17.11198257 -0.00973631 18.77474544 -0.00589263 20.4375 0 C21.22193481 -0.00607269 22.00636963 -0.01214539 22.8145752 -0.0184021 C28.13959239 0.05049763 28.13959239 0.05049763 30.42595196 1.42407131 C32.46021645 4.53080794 32.1272885 7.78403308 32.0929718 11.3764801 C32.09694621 12.19842627 32.10092061 13.02037244 32.10501546 13.86722606 C32.11466707 16.63114056 32.1028032 19.39454684 32.09106445 22.15844727 C32.09349146 24.13591707 32.09720988 26.11338565 32.10212708 28.09085083 C32.11155162 33.46880035 32.10209782 38.84656838 32.08879495 44.22450376 C32.07750148 49.84367488 32.08158628 55.46283679 32.08354187 61.08201599 C32.08442544 70.51849341 32.07333068 79.95489906 32.05493164 89.39135742 C32.03375695 100.31419774 32.03025507 111.23693294 32.0364936 122.15978962 C32.04218031 132.65217899 32.03655018 143.1445312 32.02532005 153.63691521 C32.02066549 158.10938133 32.0198039 162.58182479 32.0219059 167.05429268 C32.02378402 172.31637654 32.01572171 177.57835281 31.9998455 182.84041214 C31.99558864 184.7762514 31.99476145 186.71210155 31.99753571 188.6479435 C32.00073799 191.28120816 31.99172545 193.91414736 31.97944641 196.54737854 C31.9851154 197.70869139 31.9851154 197.70869139 31.99089891 198.8934651 C31.94707911 204.17010839 31.94707911 204.17010839 29.71875 206.3984375 C26.80141569 206.61067244 23.98142581 206.70239914 21.0625 206.69921875 C19.77539124 206.70564644 19.77539124 206.70564644 18.46228027 206.71220398 C16.64657474 206.71795158 14.83084618 206.71844438 13.01513672 206.71411133 C10.22974601 206.71094998 7.44541563 206.73440928 4.66015625 206.75976562 C2.89843885 206.76203836 1.13671857 206.76274224 -0.625 206.76171875 C-1.46148071 206.7709285 -2.29796143 206.78013824 -3.15979004 206.78962708 C-5.50585938 206.77075195 -5.50585938 206.77075195 -9.28125 206.3984375 C-11.80295416 202.61588126 -11.54845692 199.63357982 -11.50830078 195.25512695 C-11.50859283 194.42563538 -11.50888489 193.5961438 -11.50918579 192.74151611 C-11.50779179 189.99814413 -11.49222732 187.25504332 -11.4765625 184.51171875 C-11.47283262 182.61028695 -11.46998553 180.70885323 -11.46798706 178.80741882 C-11.46034865 173.80144957 -11.44069834 168.79559627 -11.4185791 163.78967285 C-11.39452935 157.78414048 -11.38534068 151.77856936 -11.37367249 145.77300262 C-11.3542741 136.64806693 -11.31595295 127.52338567 -11.28125 118.3984375 C-28.44125 118.3984375 -45.60125 118.3984375 -63.28125 118.3984375 C-63.28125 105.8584375 -63.28125 93.3184375 -63.28125 80.3984375 C-46.12125 80.3984375 -28.96125 80.3984375 -11.28125 80.3984375 C-11.31605469 74.87480469 -11.35085938 69.35117188 -11.38671875 63.66015625 C-11.402044 60.164703 -11.41648559 56.66929106 -11.42773438 53.17382812 C-11.44568086 47.62336647 -11.46693106 42.07305302 -11.50756836 36.52270508 C-11.54012 32.04881477 -11.55809415 27.57508333 -11.56588173 23.10108376 C-11.5714328 21.39260163 -11.5822725 19.68412838 -11.59844017 17.97571373 C-11.62015904 15.58607438 -11.62321931 13.19709492 -11.62182617 10.80737305 C-11.632612 10.09815201 -11.64339783 9.38893097 -11.6545105 8.65821838 C-11.63656064 5.82029963 -11.58732373 3.85820122 -9.99055481 1.4596405 C-6.95766729 -0.4232942 -3.46318947 -0.02681024 0 0 Z " fill="#00BF63" transform="translate(322.28125,125.6015625)"/>
<path d="M0 0 C0.84498047 -0.00386719 1.68996094 -0.00773437 2.56054688 -0.01171875 C3.77774414 -0.00978516 3.77774414 -0.00978516 5.01953125 -0.0078125 C5.74889893 -0.00668457 6.4782666 -0.00555664 7.22973633 -0.00439453 C9.1875 0.125 9.1875 0.125 12.1875 1.125 C12.1875 12.015 12.1875 22.905 12.1875 34.125 C5.2575 33.63 5.2575 33.63 -1.8125 33.125 C-11.61590212 33.49931172 -21.22234226 35.02500223 -28.68359375 41.83203125 C-34.28400493 47.99651262 -35.34174188 53.66152543 -35.18359375 61.89453125 C-34.54179777 67.48153419 -32.36379506 70.84391599 -28.2265625 74.54296875 C-18.71300904 81.29385275 -5.77170308 83.55365392 5.46044922 85.86938477 C11.09702516 87.03452516 11.09702516 87.03452516 12.1875 88.125 C12.27597743 90.64594076 12.30277301 93.13930893 12.28515625 95.66015625 C12.2837413 96.41340683 12.28232635 97.16665741 12.28086853 97.94273376 C12.27525376 100.3576956 12.26269883 102.77256601 12.25 105.1875 C12.2449869 106.82096221 12.24042366 108.45442586 12.23632812 110.08789062 C12.22527954 114.10029585 12.20800506 118.11263241 12.1875 122.125 C-28.33233948 115.12952895 -28.33233948 115.12952895 -45.8125 107.125 C-47.28203125 106.47144531 -47.28203125 106.47144531 -48.78125 105.8046875 C-62.11705414 99.2491658 -70.43742224 89.78013283 -75.8125 76.125 C-79.2553339 64.4994376 -78.02497931 48.91003121 -72.8125 38.125 C-72.2865625 36.95517578 -72.2865625 36.95517578 -71.75 35.76171875 C-64.28737607 20.75873523 -50.23925585 10.71023989 -34.8125 5.125 C-23.38130535 1.62266579 -11.94184417 -0.0559337 0 0 Z " fill="#000000" transform="translate(227.8125,125.875)"/>
<path d="M0 0 C0.72110962 -0.00287018 1.44221924 -0.00574036 2.18518066 -0.00869751 C3.70825995 -0.01073702 5.2313655 -0.00521497 6.75439453 0.00732422 C9.08555678 0.02338107 11.41498542 0.0074734 13.74609375 -0.01171875 C15.22656633 -0.0097363 16.70703782 -0.00589257 18.1875 0 C18.8844397 -0.00607269 19.58137939 -0.01214539 20.29943848 -0.0184021 C23.16891153 0.02329451 25.11581678 0.05519063 27.48754883 1.75854492 C29.04263926 4.06389527 29.85281952 6.46823278 30.78125 9.0859375 C34.36655891 17.92116303 40.03745191 23.45001641 48.71875 27.3671875 C60.34097473 31.53602898 71.423308 31.700184 83.59375 31.3984375 C83.59375 42.2884375 83.59375 53.1784375 83.59375 64.3984375 C55.3047998 64.88899733 27.38536222 63.02018407 5.62109375 42.5546875 C-4.0730479 32.24415534 -9.44507476 19.97136519 -10.71875 5.9609375 C-10.40625 3.3984375 -10.40625 3.3984375 -9.34960938 1.76318359 C-6.42004161 -0.29413849 -3.45195661 -0.03007817 0 0 Z " fill="#000000" transform="translate(156.40625,268.6015625)"/>
<path d="M0 0 C2.97 0 5.94 0 9 0 C9 82.83 9 165.66 9 251 C6.03 251 3.06 251 0 251 C0 168.17 0 85.34 0 0 Z " fill="#000000" transform="translate(246,104)"/>
<path d="M0 0 C3.38186376 1.9427728 4.70264591 2.99357079 5.8125 6.75 C5.874375 7.4925 5.93625 8.235 6 9 C3.1875 9.1875 3.1875 9.1875 0 9 C-1.02019573 8.0206121 -2.02149805 7.02104551 -3 6 C-5.62570704 5.74930087 -5.62570704 5.74930087 -8 6 C-8 6.99 -8 7.98 -8 9 C-7.25234375 9.17015625 -6.5046875 9.3403125 -5.734375 9.515625 C-4.74953125 9.75796875 -3.7646875 10.0003125 -2.75 10.25 C-1.28820312 10.59804688 -1.28820312 10.59804688 0.203125 10.953125 C3.37810887 12.14152678 4.93101681 13.3285921 7 16 C6.93700518 19.59070498 6.77851471 21.98454603 4.5625 24.875 C0.92551964 27.49362586 -2.66029771 27.45900697 -7 27 C-11.1888245 25.23138521 -13.02114987 23.06185027 -15 19 C-15 18.34 -15 17.68 -15 17 C-12.25 16.75 -12.25 16.75 -9 17 C-7.66666667 18.33333333 -6.33333333 19.66666667 -5 21 C-2.29294488 20.85974801 -2.29294488 20.85974801 0 20 C-0.33 19.01 -0.66 18.02 -1 17 C-3.48280777 16.07895841 -5.97649647 15.53897531 -8.5546875 14.94140625 C-11.50523623 13.80549212 -12.47680943 12.7437605 -14 10 C-14 6.4375 -14 6.4375 -13 3 C-9.28035822 -0.49420895 -4.8745793 -0.88628715 0 0 Z " fill="#000000" transform="translate(140,362)"/>
<path d="M0 0 C1.98 0 3.96 0 6 0 C6 3.63 6 7.26 6 11 C8.97 11 11.94 11 15 11 C14.98839844 10.28972656 14.97679687 9.57945312 14.96484375 8.84765625 C14.95130859 7.46900391 14.95130859 7.46900391 14.9375 6.0625 C14.92589844 5.14597656 14.91429687 4.22945313 14.90234375 3.28515625 C15 1 15 1 16 0 C17.65 0 19.3 0 21 0 C21 8.58 21 17.16 21 26 C19.02 26 17.04 26 15 26 C15 22.7 15 19.4 15 16 C12.03 16 9.06 16 6 16 C6 19.3 6 22.6 6 26 C4.02 26 2.04 26 0 26 C0 17.42 0 8.84 0 0 Z " fill="#00BF63" transform="translate(247,362)"/>
<path d="M0 0 C2.9375 1.5625 2.9375 1.5625 5 4 C5.8125 7.75 5.8125 7.75 6 11 C-0.435 11.495 -0.435 11.495 -7 12 C-6.67 12.66 -6.34 13.32 -6 14 C-2.70924004 13.62095792 -2.70924004 13.62095792 0 12 C1.66617115 11.95936168 3.33388095 11.957279 5 12 C4.8125 14.3125 4.8125 14.3125 4 17 C1.30404478 19.23379146 -0.52622556 19.9407782 -4 20.375 C-7.47936834 19.94007896 -9.27206966 19.19749944 -12 17 C-14.29789085 13.34426456 -14.28327674 10.01608973 -13.59375 5.87109375 C-13 4 -13 4 -10.9375 1.5 C-7.12355079 -0.44754853 -4.19844099 -0.8227248 0 0 Z M-7 5 C-7 5.66 -7 6.32 -7 7 C-4.69 7 -2.38 7 0 7 C-1.37485532 5.45833358 -1.37485532 5.45833358 -3 4 C-5.0745356 3.8509288 -5.0745356 3.8509288 -7 5 Z " fill="#000000" transform="translate(182,369)"/>
<path d="M0 0 C1.17369141 -0.02513672 1.17369141 -0.02513672 2.37109375 -0.05078125 C5.10543887 0.40250591 5.92910516 1.09967458 7.5625 3.3125 C8.83826761 6.66594628 8.66362571 10.00893513 8.625 13.5625 C8.61597656 14.64015625 8.60695313 15.7178125 8.59765625 16.828125 C8.58605469 17.64796875 8.57445312 18.4678125 8.5625 19.3125 C6.29294814 19.53435844 4.02176245 19.73955515 1.75 19.9375 C-0.14685547 20.11152344 -0.14685547 20.11152344 -2.08203125 20.2890625 C-5.4375 20.3125 -5.4375 20.3125 -8.4375 18.3125 C-9.375 15.4375 -9.375 15.4375 -9.4375 12.3125 C-8 10 -8 10 -5.4375 8.3125 C-2.73349303 7.69959175 -0.22185068 7.49812338 2.5625 7.3125 C2.2325 6.6525 1.9025 5.9925 1.5625 5.3125 C-1.19391416 5.81006092 -1.19391416 5.81006092 -3.4375 7.3125 C-5.10367115 7.35313832 -6.77138095 7.355221 -8.4375 7.3125 C-6.59000769 2.29787801 -5.58156415 0.02749539 0 0 Z M-3.4375 13.3125 C-3.4375 13.9725 -3.4375 14.6325 -3.4375 15.3125 C-1.7875 14.9825 -0.1375 14.6525 1.5625 14.3125 C1.8925 13.3225 2.2225 12.3325 2.5625 11.3125 C0.09971199 11.3125 -1.28974119 12.16702863 -3.4375 13.3125 Z " fill="#00BF63" transform="translate(337.4375,368.6875)"/>
<path d="M0 0 C1.65 0 3.3 0 5 0 C5.33 3.63 5.66 7.26 6 11 C6.515625 10.34 7.03125 9.68 7.5625 9 C10.79995755 6.34362457 12.92552281 6.68657868 17 7 C15.55746343 10.36591866 13.66735273 12.51047079 11 15 C12.77945087 19.04420651 15.39529673 22.46078487 18 26 C14.8125 26.375 14.8125 26.375 11 26 C8.8596502 24.18811972 7.61011698 22.34198833 6 20 C5.67 21.98 5.34 23.96 5 26 C3.35 26 1.7 26 0 26 C0 17.42 0 8.84 0 0 Z " fill="#000000" transform="translate(199,362)"/>
<path d="M0 0 C1.65 0 3.3 0 5 0 C5 2.64 5 5.28 5 8 C5.66 7.67 6.32 7.34 7 7 C10.4375 6.6875 10.4375 6.6875 14 7 C16.75800773 9.47465077 16.99538784 10.94219432 17.29296875 14.671875 C17.27316751 16.03156035 17.23759202 17.3910934 17.1875 18.75 C17.16719727 19.79607422 17.16719727 19.79607422 17.14648438 20.86328125 C17.1112945 22.57585541 17.05749155 24.28802941 17 26 C15.35 26 13.7 26 12 26 C11.93941406 25.15695312 11.87882813 24.31390625 11.81640625 23.4453125 C11.73261719 22.34960938 11.64882812 21.25390625 11.5625 20.125 C11.48128906 19.03445313 11.40007812 17.94390625 11.31640625 16.8203125 C11.16998297 14.05271029 11.16998297 14.05271029 10 12 C8.68 12 7.36 12 6 12 C5.67 16.62 5.34 21.24 5 26 C3.35 26 1.7 26 0 26 C0 17.42 0 8.84 0 0 Z " fill="#000000" transform="translate(218,362)"/>
<path d="M0 0 C1.65 0 3.3 0 5 0 C5 2.64 5 5.28 5 8 C5.66 7.67 6.32 7.34 7 7 C10.4375 6.6875 10.4375 6.6875 14 7 C16.75800773 9.47465077 16.99538784 10.94219432 17.29296875 14.671875 C17.27316751 16.03156035 17.23759202 17.3910934 17.1875 18.75 C17.16719727 19.79607422 17.16719727 19.79607422 17.14648438 20.86328125 C17.1112945 22.57585541 17.05749155 24.28802941 17 26 C15.35 26 13.7 26 12 26 C11.93941406 25.15695312 11.87882813 24.31390625 11.81640625 23.4453125 C11.73261719 22.34960938 11.64882812 21.25390625 11.5625 20.125 C11.48128906 19.03445313 11.40007812 17.94390625 11.31640625 16.8203125 C11.16998297 14.05271029 11.16998297 14.05271029 10 12 C8.68 12 7.36 12 6 12 C5.67 16.62 5.34 21.24 5 26 C3.35 26 1.7 26 0 26 C0 17.42 0 8.84 0 0 Z " fill="#000000" transform="translate(149,362)"/>
<path d="M0 0 C2.5 1.8125 2.5 1.8125 4 4 C4 4.99 4 5.98 4 7 C-0.27343092 7.36629408 -2.48812804 6.40814077 -6 4 C-6 4.99 -6 5.98 -6 7 C-4.1128125 7.1546875 -4.1128125 7.1546875 -2.1875 7.3125 C0.36524139 7.64232322 1.79802006 7.87376254 4 9.25 C5.43951779 11.76915613 5.55686738 13.1460547 5 16 C3.0625 18.375 3.0625 18.375 0 20 C-3.19462365 20.28990357 -5.95081991 20.00122331 -9 19 C-11.5625 16.5625 -11.5625 16.5625 -13 14 C-13 13.34 -13 12.68 -13 12 C-11.02 12 -9.04 12 -7 12 C-6.67 12.66 -6.34 13.32 -6 14 C-3.47266765 14.65555119 -3.47266765 14.65555119 -1 15 C-1.80353553 12.86054904 -1.80353553 12.86054904 -3.77734375 12.21875 C-4.49019531 11.9815625 -5.20304687 11.744375 -5.9375 11.5 C-8.70455204 10.57597536 -9.89137369 10.10862631 -12 8 C-12.375 5.5625 -12.375 5.5625 -12 3 C-8.88682022 -0.7617589 -4.54154765 -0.85619341 0 0 Z " fill="#00BF63" transform="translate(322,369)"/>
<path d="M0 0 C2.5 1.8125 2.5 1.8125 4 4 C4 4.99 4 5.98 4 7 C-0.27343092 7.36629408 -2.48812804 6.40814077 -6 4 C-6 4.99 -6 5.98 -6 7 C-4.1128125 7.1546875 -4.1128125 7.1546875 -2.1875 7.3125 C0.36524139 7.64232322 1.79802006 7.87376254 4 9.25 C5.43951779 11.76915613 5.55686738 13.1460547 5 16 C3.0625 18.375 3.0625 18.375 0 20 C-3.19462365 20.28990357 -5.95081991 20.00122331 -9 19 C-11.5625 16.5625 -11.5625 16.5625 -13 14 C-13 13.34 -13 12.68 -13 12 C-11.02 12 -9.04 12 -7 12 C-6.67 12.66 -6.34 13.32 -6 14 C-3.47266765 14.65555119 -3.47266765 14.65555119 -1 15 C-1.80353553 12.86054904 -1.80353553 12.86054904 -3.77734375 12.21875 C-4.49019531 11.9815625 -5.20304687 11.744375 -5.9375 11.5 C-8.70455204 10.57597536 -9.89137369 10.10862631 -12 8 C-12.375 5.5625 -12.375 5.5625 -12 3 C-8.88682022 -0.7617589 -4.54154765 -0.85619341 0 0 Z " fill="#00BF63" transform="translate(303,369)"/>
<path d="M0 0 C1.98 0 3.96 0 6 0 C6.33 4.62 6.66 9.24 7 14 C7.99 14 8.98 14 10 14 C11.35091528 11.29816945 11.33858058 8.88191794 11.5625 5.875 C11.64628906 4.77929688 11.73007812 3.68359375 11.81640625 2.5546875 C11.87699219 1.71164062 11.93757813 0.86859375 12 0 C13.65 0 15.3 0 17 0 C17 6.27 17 12.54 17 19 C15.02 19 13.04 19 11 19 C10.67 19.33 10.34 19.66 10 20 C5.96839809 20.26293056 4.44107266 20.29404844 1 18 C-0.2062252 14.38132441 -0.10816918 11.07493749 -0.0625 7.3125 C-0.05798828 6.61060547 -0.05347656 5.90871094 -0.04882812 5.18554688 C-0.03706927 3.45699462 -0.01913454 1.72848635 0 0 Z " fill="#00BF63" transform="translate(271,369)"/>
<path d="M0 0 C13.37877975 -0.49096439 13.37877975 -0.49096439 15.9375 1.53125 C17.40457884 4.94005084 17.32154034 8.11372614 17.1875 11.75 C17.16719727 12.79607422 17.16719727 12.79607422 17.14648438 13.86328125 C17.1112945 15.57585541 17.05749155 17.28802941 17 19 C15.35 19 13.7 19 12 19 C11.93941406 18.15695312 11.87882812 17.31390625 11.81640625 16.4453125 C11.73261719 15.34960938 11.64882813 14.25390625 11.5625 13.125 C11.48128906 12.03445313 11.40007812 10.94390625 11.31640625 9.8203125 C11.16998297 7.05271029 11.16998297 7.05271029 10 5 C8.68 5 7.36 5 6 5 C5.67 9.62 5.34 14.24 5 19 C3.35 19 1.7 19 0 19 C0 12.73 0 6.46 0 0 Z " fill="#00BF63" transform="translate(357,369)"/>
<path d="M0 0 C1.65 0 3.3 0 5 0 C5 6.27 5 12.54 5 19 C3.35 19 1.7 19 0 19 C0 12.73 0 6.46 0 0 Z " fill="#00BF63" transform="translate(349,369)"/>
<path d="M0 0 C1.65 0 3.3 0 5 0 C5 6.27 5 12.54 5 19 C3.35 19 1.7 19 0 19 C0 12.73 0 6.46 0 0 Z " fill="#000000" transform="translate(190,369)"/>
<path d="M0 0 C1.65 0.33 3.3 0.66 5 1 C4.67 2.65 4.34 4.3 4 6 C2.35 5.67 0.7 5.34 -1 5 C-0.67 3.35 -0.34 1.7 0 0 Z " fill="#00BF63" transform="translate(349,362)"/>
<path d="M0 0 C1.65 0.33 3.3 0.66 5 1 C4.67 2.65 4.34 4.3 4 6 C2.35 5.67 0.7 5.34 -1 5 C-0.67 3.35 -0.34 1.7 0 0 Z " fill="#000000" transform="translate(191,362)"/>
</svg>
